<?xml version="1.0" standalone="no"?>
<!DOCTYPE svg PUBLIC "-//W3C//DTD SVG 20010904//EN"
 "http://www.w3.org/TR/2001/REC-SVG-20010904/DTD/svg10.dtd">
<svg version="1.0" xmlns="http://www.w3.org/2000/svg"
 width="900.000000pt" height="701.000000pt" viewBox="0 0 900.000000 701.000000"
 preserveAspectRatio="xMidYMid meet">

<g transform="translate(0.000000,701.000000) scale(0.100000,-0.100000)"
fill="#857770" stroke="none">
<path d="M5070 5933 c-19 -7 -59 -43 -70 -63 -4 -8 -60 -195 -123 -415 -64
-220 -141 -488 -172 -595 -31 -107 -123 -427 -205 -710 -163 -564 -214 -741
-295 -1020 -29 -102 -97 -336 -150 -520 -53 -184 -121 -420 -151 -523 -30
-104 -79 -275 -110 -380 -30 -106 -99 -340 -151 -522 -111 -381 -118 -412
-110 -448 15 -58 44 -76 192 -117 160 -46 201 -49 239 -19 37 29 41 39 106
262 32 111 97 337 145 502 47 165 115 399 150 520 35 121 98 339 140 485 42
146 101 350 131 453 30 104 79 273 109 377 30 104 80 276 111 382 31 106 60
207 64 223 4 17 37 131 73 255 36 124 109 376 162 560 99 347 130 452 239 825
92 315 90 305 73 348 -21 50 -49 65 -205 108 -136 38 -163 43 -192 32z"/>
<path d="M2825 5194 c-33 -17 -1820 -1796 -1866 -1858 -32 -44 -38 -91 -15
-134 8 -15 432 -444 943 -954 633 -633 937 -929 956 -934 63 -15 87 0 225 139
122 124 132 137 132 171 0 21 -5 47 -11 59 -6 12 -360 372 -788 800 l-776 777
782 783 c824 824 806 803 788 874 -8 35 -228 260 -272 279 -41 18 -61 18 -98
-2z"/>
<path d="M6091 5203 c-30 -6 -256 -227 -277 -271 -37 -78 -74 -36 779 -889
429 -430 779 -784 777 -787 -3 -3 -354 -355 -781 -783 -828 -830 -804 -802
-780 -876 15 -43 245 -273 284 -282 71 -18 39 -48 1029 942 696 696 940 946
947 970 6 20 6 46 0 65 -6 25 -236 260 -941 965 -526 525 -945 937 -961 943
-29 10 -35 11 -76 3z"/>
</g>
</svg>
